<svg enable-background="new 0 0 256 256" height="512" viewBox="0 0 256 256" width="512" xmlns="http://www.w3.org/2000/svg"><g id="Layer_66"><g><g><g><path d="m36.5 43.25v185.18c0 2.938 2.382 5.32 5.32 5.32h172.36c2.938 0 5.32-2.382 5.32-5.32v-185.18z" fill="#edf4fc"/></g></g><g><g><path d="m214.18 236.25h-172.36c-4.312 0-7.82-3.508-7.82-7.819v-185.181c0-1.381 1.119-2.5 2.5-2.5s2.5 1.119 2.5 2.5v185.181c0 1.555 1.265 2.819 2.82 2.819h172.36c1.555 0 2.82-1.265 2.82-2.819v-185.181c0-1.381 1.119-2.5 2.5-2.5s2.5 1.119 2.5 2.5v185.181c0 4.311-3.508 7.819-7.82 7.819z"/></g></g><g><g><path d="m55.997 183h144.006c2.203 0 3.988-1.786 3.988-3.988v-54.023c0-2.203-1.786-3.988-3.988-3.988h-144.006c-2.203 0-3.988 1.786-3.988 3.988v54.023c-.001 2.202 1.785 3.988 3.988 3.988z" fill="#70d6f9"/></g></g><g><g><path d="m55.997 95.221h68.015c2.203 0 3.988-1.786 3.988-3.988v-12.465c0-2.203-1.786-3.988-3.988-3.988h-68.015c-2.203 0-3.988 1.786-3.988 3.988v12.465c-.001 2.202 1.785 3.988 3.988 3.988z" fill="#70d6f9"/></g></g><g><g><path d="m165.988 212.221h34.015c2.203 0 3.988-1.786 3.988-3.988v-7.465c0-2.203-1.786-3.988-3.988-3.988h-34.015c-2.203 0-3.988 1.786-3.988 3.988v7.465c0 2.202 1.786 3.988 3.988 3.988z" fill="#87d147"/></g></g><g><g><path d="m214.18 22.25h-172.36c-2.938 0-5.32 2.382-5.32 5.32v15.68h183v-15.68c0-2.938-2.382-5.32-5.32-5.32z" fill="#5290db"/></g></g><g><g><path d="m59 22.25h-17.18c-2.938 0-5.32 2.382-5.32 5.32v15.68h22.5z" fill="#fc657e"/></g></g><g><g><circle cx="233.384" cy="76.627" fill="#70d6f9" r="3.377"/></g></g><g><g><path d="m146.952 249.159c-3.464.645-6.194 3.319-6.852 6.713-.033.17-.271.17-.304 0-.659-3.393-3.388-6.068-6.852-6.713-.174-.032-.174-.265 0-.298 3.464-.645 6.194-3.32 6.852-6.713.033-.17.271-.17.304 0 .658 3.393 3.388 6.068 6.852 6.713.174.033.174.266 0 .298z" fill="#f5c84c"/></g></g><g><g><path d="m120.089 9.242h-1.824v1.824c0 1.366-1.107 2.473-2.473 2.473s-2.473-1.107-2.473-2.473v-1.824h-1.824c-1.366 0-2.473-1.107-2.473-2.473s1.107-2.473 2.473-2.473h1.824v-1.823c0-1.366 1.107-2.473 2.473-2.473s2.473 1.107 2.473 2.473v1.824h1.824c1.366 0 2.473 1.107 2.473 2.473s-1.108 2.472-2.473 2.472z" fill="#70d6f9"/></g></g><g><g><circle cx="147" cy="8.373" fill="#fc657e" r="3.377"/></g></g><g><g><path d="m219.5 45.75h-183c-1.381 0-2.5-1.119-2.5-2.5v-15.681c0-4.312 3.508-7.819 7.82-7.819h172.36c4.312 0 7.82 3.508 7.82 7.819v15.681c0 1.381-1.119 2.5-2.5 2.5zm-180.5-5h178v-13.181c0-1.555-1.265-2.819-2.82-2.819h-172.36c-1.555 0-2.82 1.265-2.82 2.819z"/></g></g><g><g><path d="m184 35.25h-111c-1.381 0-2.5-1.119-2.5-2.5s1.119-2.5 2.5-2.5h111c1.381 0 2.5 1.119 2.5 2.5s-1.119 2.5-2.5 2.5z"/></g></g><g><g><path d="m207.789 35.25h-10.885c-1.381 0-2.5-1.119-2.5-2.5s1.119-2.5 2.5-2.5h10.885c1.381 0 2.5 1.119 2.5 2.5s-1.12 2.5-2.5 2.5z"/></g></g><g><g><path d="m59 44.958c-1.381 0-2.5-1.119-2.5-2.5v-19.083c0-1.381 1.119-2.5 2.5-2.5s2.5 1.119 2.5 2.5v19.083c0 1.381-1.119 2.5-2.5 2.5z"/></g></g><g><g><path d="m29.332 178.883c-2.473-.46-4.421-2.37-4.891-4.792-.024-.122-.193-.122-.217 0-.47 2.422-2.419 4.331-4.892 4.792-.124.023-.124.189 0 .213 2.473.461 4.421 2.37 4.892 4.792.024.122.193.122.217 0 .47-2.422 2.419-4.331 4.891-4.792.124-.023.124-.19 0-.213z" fill="#87d147"/></g></g><g><g><path d="m200.003 185.5h-144.006c-3.578 0-6.489-2.91-6.489-6.488v-54.023c0-3.578 2.911-6.488 6.489-6.488h144.006c3.578 0 6.489 2.91 6.489 6.488v54.023c0 3.578-2.911 6.488-6.489 6.488zm-144.006-62c-.821 0-1.489.668-1.489 1.488v54.023c0 .82.668 1.488 1.489 1.488h144.006c.821 0 1.489-.668 1.489-1.488v-54.023c0-.82-.668-1.488-1.489-1.488z"/></g></g><g><g><path d="m124.012 97.721h-68.015c-3.578 0-6.489-2.91-6.489-6.488v-12.465c0-3.578 2.911-6.488 6.489-6.488h68.015c3.578 0 6.488 2.91 6.488 6.488v12.465c0 3.578-2.911 6.488-6.488 6.488zm-68.015-20.442c-.821 0-1.489.668-1.489 1.488v12.465c0 .82.668 1.488 1.489 1.488h68.015c.821 0 1.488-.668 1.488-1.488v-12.464c0-.82-.667-1.488-1.488-1.488h-68.015z"/></g></g><g><g><path d="m97.5 112.5h-43.503c-1.381 0-2.5-1.119-2.5-2.5s1.119-2.5 2.5-2.5h43.503c1.381 0 2.5 1.119 2.5 2.5s-1.119 2.5-2.5 2.5z"/></g></g><g><g><path d="m97.5 66.279h-43.503c-1.381 0-2.5-1.119-2.5-2.5s1.119-2.5 2.5-2.5h43.503c1.381 0 2.5 1.119 2.5 2.5s-1.119 2.5-2.5 2.5z"/></g></g><g><g><path d="m200.003 214.721h-34.015c-3.578 0-6.488-2.91-6.488-6.488v-7.465c0-3.578 2.911-6.488 6.488-6.488h34.015c3.578 0 6.489 2.91 6.489 6.488v7.465c0 3.578-2.911 6.488-6.489 6.488zm-34.015-15.442c-.821 0-1.488.668-1.488 1.488v7.465c0 .82.667 1.488 1.488 1.488h34.015c.821 0 1.489-.668 1.489-1.488v-7.465c0-.82-.668-1.488-1.489-1.488z"/></g></g><g><g><path d="m128 138.997h-62.365c-1.381 0-2.5-1.119-2.5-2.5s1.119-2.5 2.5-2.5h62.365c1.381 0 2.5 1.119 2.5 2.5s-1.119 2.5-2.5 2.5z"/></g></g><g><g><path d="m191.309 149.677h-125.674c-1.381 0-2.5-1.119-2.5-2.5s1.119-2.5 2.5-2.5h125.673c1.381 0 2.5 1.119 2.5 2.5s-1.119 2.5-2.499 2.5z"/></g></g><g><g><path d="m191.309 160.357h-125.674c-1.381 0-2.5-1.119-2.5-2.5s1.119-2.5 2.5-2.5h125.673c1.381 0 2.5 1.119 2.5 2.5s-1.119 2.5-2.499 2.5z"/></g></g><g><g><path d="m191.309 171.037h-125.674c-1.381 0-2.5-1.119-2.5-2.5s1.119-2.5 2.5-2.5h125.673c1.381 0 2.5 1.119 2.5 2.5s-1.119 2.5-2.499 2.5z"/></g></g></g></g></svg>